<?xml version="1.0" encoding="UTF-8" standalone="no"?>
<svg
   xmlns:dc="http://purl.org/dc/elements/1.1/"
   xmlns:cc="http://creativecommons.org/ns#"
   xmlns:rdf="http://www.w3.org/1999/02/22-rdf-syntax-ns#"
   xmlns:svg="http://www.w3.org/2000/svg"
   xmlns="http://www.w3.org/2000/svg"
   xmlns:sodipodi="http://sodipodi.sourceforge.net/DTD/sodipodi-0.dtd"
   xmlns:inkscape="http://www.inkscape.org/namespaces/inkscape"
   inkscape:version="1.0 (4035a4fb49, 2020-05-01)"
   sodipodi:docname="arrow_plain.svg"
   id="svg14"
   version="1.1"
   height="180.009"
   width="196.41678">
  <defs
     id="defs18" />
  <sodipodi:namedview
     inkscape:current-layer="svg14"
     inkscape:window-maximized="1"
     inkscape:window-y="-8"
     inkscape:window-x="-8"
     inkscape:cy="65.203552"
     inkscape:cx="108.57179"
     inkscape:zoom="1.5711813"
     fit-margin-bottom="0"
     fit-margin-right="0"
     fit-margin-left="0"
     fit-margin-top="0"
     showgrid="false"
     id="namedview16"
     inkscape:window-height="1017"
     inkscape:window-width="1920"
     inkscape:pageshadow="2"
     inkscape:pageopacity="0"
     guidetolerance="10"
     gridtolerance="10"
     objecttolerance="10"
     borderopacity="1"
     bordercolor="#666666"
     pagecolor="#ffffff" />
  <title
     id="title2">arrow left</title>
  <metadata
     id="metadata7">image/svg+xml<rdf:RDF>
  <cc:Work
     rdf:about="">
    <dc:format>image/svg+xml</dc:format>
    <dc:type
       rdf:resource="http://purl.org/dc/dcmitype/StillImage" />
    <dc:title>arrow left</dc:title>
  </cc:Work>
</rdf:RDF>
</metadata>
  <g
     style="fill:#37abc8;stroke:#37abc8"
     transform="rotate(90,300.09391,57.003816)"
     id="g12">
    <title
       id="title5">Layer 1</title>
    <g
       style="fill:#37abc8;stroke:#37abc8"
       id="layer1"
       transform="rotate(-92.0253,335.043,258.258)">
      <g
         style="fill:#37abc8;stroke:#37abc8"
         id="g3043">
        <path
           style="fill:#37abc8;stroke:#37abc8"
           fill="#000000"
           fill-rule="evenodd"
           d="m 285.11438,294.68384 c -0.0555,-0.59809 2.08591,-1.34235 5.98001,-2.38629 3.89407,-1.04395 9.54459,-2.4054 16.46155,-4.46259 6.91696,-2.05719 15.10293,-4.82288 23.96988,-8.66779 8.86694,-3.84484 18.41217,-8.77587 27.94934,-15.00781 0,0 0,0 0,0 5.67023,-3.70227 11.33072,-7.87176 16.85272,-12.48987 10.66382,-8.91827 19.77502,-18.66375 27.23456,-28.19049 7.4595,-9.52673 13.27377,-18.82348 17.72751,-26.8869 4.45376,-8.06343 7.57028,-14.89131 9.7955,-19.62025 1.11264,-2.36445 2.00287,-4.20649 2.70648,-5.43158 0.70361,-1.2251 1.22186,-1.83313 1.55377,-1.73902 0.33194,0.0941 0.4618,0.88648 0.37702,2.31305 -0.0848,1.42658 -0.38541,3.48731 -0.95105,6.1004 -1.13126,5.22614 -3.32495,12.68067 -7.13306,21.48671 -3.80814,8.80597 -9.2583,18.95819 -16.70142,29.30713 -7.44317,10.349 -16.89086,20.87799 -28.19647,30.33014 -5.85431,4.89459 -11.90936,9.25897 -18.00177,13.06598 0,0 0,0 0,0 -10.23761,6.39233 -20.5263,11.20398 -30.06039,14.68335 -9.53409,3.47937 -18.30936,5.63666 -25.68332,6.91455 -7.37393,1.27783 -13.34854,1.6911 -17.46027,1.68707 -4.11169,-0.004 -6.36511,-0.40771 -6.42059,-1.00579 z"
           id="path2985" />
        <path
           style="fill:#37abc8;stroke:#37abc8"
           fill="#000000"
           fill-rule="evenodd"
           d="m 307.24936,246.21204 c 0.42621,0.48516 -1.11566,2.65411 -4.32599,6.07586 -3.21033,3.42182 -8.08945,8.09558 -14.31241,13.66626 -6.22296,5.57068 -13.78985,12.03809 -22.34799,19.13013 -8.55814,7.09204 -18.10733,14.80939 -28.26852,22.95874 0,0 0,0 0,0 3.69444,0.0982 7.41452,0.33423 11.14688,0.7063 13.64758,1.36035 26.24215,4.40729 37.46518,8.04486 11.22302,3.63763 21.08197,7.84949 29.36236,11.81622 18.94464,9.74738 30.53284,16.54694 29.91843,17.87873 -0.61441,1.33184 -13.30838,-3.07074 -33.01956,-11.15662 -8.76221,-3.89563 -19.0441,-8.51917 -30.46369,-12.95465 -11.41958,-4.43549 -23.97345,-8.6648 -37.26663,-11.33661 -3.63548,-0.73071 -7.23858,-1.32538 -10.79971,-1.77557 0,0 0,0 1e-5,0 9.80117,-9.38636 19.11858,-18.24219 27.63152,-26.14606 8.51291,-7.90381 16.22153,-14.85498 22.77881,-20.51099 6.55725,-5.656 11.96307,-10.0169 15.84259,-12.82312 3.87958,-2.80621 6.23251,-4.05865 6.65872,-3.57348 z"
           id="path2991" />
      </g>
      <g
         style="fill:#37abc8;stroke:#37abc8"
         id="g3083" />
    </g>
  </g>
</svg>
